<mxfile host="app.diagrams.net" agent="Mozilla/5.0 (Windows NT 10.0; Win64; x64) AppleWebKit/537.36 (KHTML, like Gecko) Chrome/128.0.0.0 Safari/537.36" version="24.7.10">
  <diagram name="Page-1" id="HjJvfID0N_OcH9fL1qjC">
    <mxGraphModel dx="1221" dy="626" grid="1" gridSize="10" guides="1" tooltips="1" connect="1" arrows="1" fold="1" page="1" pageScale="1" pageWidth="850" pageHeight="1100" math="0" shadow="0">
      <root>
        <mxCell id="0" />
        <mxCell id="1" parent="0" />
        <mxCell id="vW1BBPxssYhfNUN2Xg9m-31" value="Start" style="whiteSpace=wrap;strokeWidth=2;" vertex="1" parent="1">
          <mxGeometry x="333" y="20" width="50" height="34" as="geometry" />
        </mxCell>
        <mxCell id="vW1BBPxssYhfNUN2Xg9m-32" value="Generate random number between 1 and 100" style="whiteSpace=wrap;strokeWidth=2;" vertex="1" parent="1">
          <mxGeometry x="188" y="104" width="341" height="34" as="geometry" />
        </mxCell>
        <mxCell id="vW1BBPxssYhfNUN2Xg9m-33" value="Set attempts to 0" style="whiteSpace=wrap;strokeWidth=2;" vertex="1" parent="1">
          <mxGeometry x="288" y="187" width="141" height="34" as="geometry" />
        </mxCell>
        <mxCell id="vW1BBPxssYhfNUN2Xg9m-34" value="Prompt user for input" style="whiteSpace=wrap;strokeWidth=2;" vertex="1" parent="1">
          <mxGeometry x="274" y="271" width="169" height="34" as="geometry" />
        </mxCell>
        <mxCell id="vW1BBPxssYhfNUN2Xg9m-35" value="Is input a valid number?" style="rhombus;strokeWidth=2;whiteSpace=wrap;" vertex="1" parent="1">
          <mxGeometry x="336" y="355" width="220" height="220" as="geometry" />
        </mxCell>
        <mxCell id="vW1BBPxssYhfNUN2Xg9m-36" value="Prompt again" style="whiteSpace=wrap;strokeWidth=2;" vertex="1" parent="1">
          <mxGeometry x="20" y="643" width="109" height="34" as="geometry" />
        </mxCell>
        <mxCell id="vW1BBPxssYhfNUN2Xg9m-37" value="Convert input to integer" style="whiteSpace=wrap;strokeWidth=2;" vertex="1" parent="1">
          <mxGeometry x="351" y="643" width="190" height="34" as="geometry" />
        </mxCell>
        <mxCell id="vW1BBPxssYhfNUN2Xg9m-38" value="Increment attempts" style="whiteSpace=wrap;strokeWidth=2;" vertex="1" parent="1">
          <mxGeometry x="367" y="727" width="158" height="34" as="geometry" />
        </mxCell>
        <mxCell id="vW1BBPxssYhfNUN2Xg9m-39" value="Is guess equal to secret number?" style="rhombus;strokeWidth=2;whiteSpace=wrap;" vertex="1" parent="1">
          <mxGeometry x="305" y="810" width="282" height="282" as="geometry" />
        </mxCell>
        <mxCell id="vW1BBPxssYhfNUN2Xg9m-40" value="Is guess less than secret number?" style="rhombus;strokeWidth=2;whiteSpace=wrap;" vertex="1" parent="1">
          <mxGeometry x="439" y="1161" width="286" height="286" as="geometry" />
        </mxCell>
        <mxCell id="vW1BBPxssYhfNUN2Xg9m-41" value="Too low!" style="whiteSpace=wrap;strokeWidth=2;" vertex="1" parent="1">
          <mxGeometry x="142" y="1515" width="76" height="34" as="geometry" />
        </mxCell>
        <mxCell id="vW1BBPxssYhfNUN2Xg9m-42" value="Too high!" style="whiteSpace=wrap;strokeWidth=2;" vertex="1" parent="1">
          <mxGeometry x="734" y="1515" width="81" height="34" as="geometry" />
        </mxCell>
        <mxCell id="vW1BBPxssYhfNUN2Xg9m-43" value="Congratulations!" style="whiteSpace=wrap;strokeWidth=2;" vertex="1" parent="1">
          <mxGeometry x="256" y="1287" width="133" height="34" as="geometry" />
        </mxCell>
        <mxCell id="vW1BBPxssYhfNUN2Xg9m-44" value="End" style="whiteSpace=wrap;strokeWidth=2;" vertex="1" parent="1">
          <mxGeometry x="480" y="1515" width="41" height="34" as="geometry" />
        </mxCell>
        <mxCell id="vW1BBPxssYhfNUN2Xg9m-45" value="" style="curved=1;startArrow=none;endArrow=block;exitX=0.51;exitY=0.99;entryX=0.5;entryY=-0.01;rounded=0;" edge="1" parent="1" source="vW1BBPxssYhfNUN2Xg9m-31" target="vW1BBPxssYhfNUN2Xg9m-32">
          <mxGeometry relative="1" as="geometry">
            <Array as="points" />
          </mxGeometry>
        </mxCell>
        <mxCell id="vW1BBPxssYhfNUN2Xg9m-46" value="" style="curved=1;startArrow=none;endArrow=block;exitX=0.5;exitY=0.98;entryX=0.5;entryY=0.01;rounded=0;" edge="1" parent="1" source="vW1BBPxssYhfNUN2Xg9m-32" target="vW1BBPxssYhfNUN2Xg9m-33">
          <mxGeometry relative="1" as="geometry">
            <Array as="points" />
          </mxGeometry>
        </mxCell>
        <mxCell id="vW1BBPxssYhfNUN2Xg9m-47" value="" style="curved=1;startArrow=none;endArrow=block;exitX=0.5;exitY=1;entryX=0.5;entryY=0;rounded=0;" edge="1" parent="1" source="vW1BBPxssYhfNUN2Xg9m-33" target="vW1BBPxssYhfNUN2Xg9m-34">
          <mxGeometry relative="1" as="geometry">
            <Array as="points" />
          </mxGeometry>
        </mxCell>
        <mxCell id="vW1BBPxssYhfNUN2Xg9m-48" value="" style="curved=1;startArrow=none;endArrow=block;exitX=0.71;exitY=0.99;entryX=0.5;entryY=0;rounded=0;" edge="1" parent="1" source="vW1BBPxssYhfNUN2Xg9m-34" target="vW1BBPxssYhfNUN2Xg9m-35">
          <mxGeometry relative="1" as="geometry">
            <Array as="points">
              <mxPoint x="446" y="330" />
            </Array>
          </mxGeometry>
        </mxCell>
        <mxCell id="vW1BBPxssYhfNUN2Xg9m-49" value="No" style="curved=1;startArrow=none;endArrow=block;exitX=0;exitY=0.72;entryX=0.63;entryY=0;rounded=0;" edge="1" parent="1" source="vW1BBPxssYhfNUN2Xg9m-35" target="vW1BBPxssYhfNUN2Xg9m-36">
          <mxGeometry relative="1" as="geometry">
            <Array as="points">
              <mxPoint x="118" y="609" />
            </Array>
          </mxGeometry>
        </mxCell>
        <mxCell id="vW1BBPxssYhfNUN2Xg9m-50" value="" style="curved=1;startArrow=none;endArrow=block;exitX=0.5;exitY=0;entryX=0;entryY=0.86;rounded=0;" edge="1" parent="1" source="vW1BBPxssYhfNUN2Xg9m-36" target="vW1BBPxssYhfNUN2Xg9m-34">
          <mxGeometry relative="1" as="geometry">
            <Array as="points">
              <mxPoint x="73" y="609" />
              <mxPoint x="73" y="330" />
            </Array>
          </mxGeometry>
        </mxCell>
        <mxCell id="vW1BBPxssYhfNUN2Xg9m-51" value="Yes" style="curved=1;startArrow=none;endArrow=block;exitX=0.5;exitY=1;entryX=0.5;entryY=0;rounded=0;" edge="1" parent="1" source="vW1BBPxssYhfNUN2Xg9m-35" target="vW1BBPxssYhfNUN2Xg9m-37">
          <mxGeometry relative="1" as="geometry">
            <Array as="points" />
          </mxGeometry>
        </mxCell>
        <mxCell id="vW1BBPxssYhfNUN2Xg9m-52" value="" style="curved=1;startArrow=none;endArrow=block;exitX=0.5;exitY=0.99;entryX=0.5;entryY=-0.01;rounded=0;" edge="1" parent="1" source="vW1BBPxssYhfNUN2Xg9m-37" target="vW1BBPxssYhfNUN2Xg9m-38">
          <mxGeometry relative="1" as="geometry">
            <Array as="points" />
          </mxGeometry>
        </mxCell>
        <mxCell id="vW1BBPxssYhfNUN2Xg9m-53" value="" style="curved=1;startArrow=none;endArrow=block;exitX=0.5;exitY=0.98;entryX=0.5;entryY=0;rounded=0;" edge="1" parent="1" source="vW1BBPxssYhfNUN2Xg9m-38" target="vW1BBPxssYhfNUN2Xg9m-39">
          <mxGeometry relative="1" as="geometry">
            <Array as="points" />
          </mxGeometry>
        </mxCell>
        <mxCell id="vW1BBPxssYhfNUN2Xg9m-54" value="No" style="curved=1;startArrow=none;endArrow=block;exitX=0.89;exitY=1;entryX=0.5;entryY=0;rounded=0;" edge="1" parent="1" source="vW1BBPxssYhfNUN2Xg9m-39" target="vW1BBPxssYhfNUN2Xg9m-40">
          <mxGeometry relative="1" as="geometry">
            <Array as="points">
              <mxPoint x="582" y="1126" />
            </Array>
          </mxGeometry>
        </mxCell>
        <mxCell id="vW1BBPxssYhfNUN2Xg9m-55" value="Yes" style="curved=1;startArrow=none;endArrow=block;exitX=0.07;exitY=1;entryX=1.01;entryY=0.27;rounded=0;" edge="1" parent="1" source="vW1BBPxssYhfNUN2Xg9m-40" target="vW1BBPxssYhfNUN2Xg9m-41">
          <mxGeometry relative="1" as="geometry">
            <Array as="points">
              <mxPoint x="430" y="1481" />
            </Array>
          </mxGeometry>
        </mxCell>
        <mxCell id="vW1BBPxssYhfNUN2Xg9m-56" value="" style="curved=1;startArrow=none;endArrow=block;exitX=0.44;exitY=0;entryX=0.04;entryY=0.99;rounded=0;" edge="1" parent="1" source="vW1BBPxssYhfNUN2Xg9m-41" target="vW1BBPxssYhfNUN2Xg9m-34">
          <mxGeometry relative="1" as="geometry">
            <Array as="points">
              <mxPoint x="164" y="1481" />
              <mxPoint x="164" y="330" />
            </Array>
          </mxGeometry>
        </mxCell>
        <mxCell id="vW1BBPxssYhfNUN2Xg9m-57" value="No" style="curved=1;startArrow=none;endArrow=block;exitX=1;exitY=0.93;entryX=0.56;entryY=0;rounded=0;" edge="1" parent="1" source="vW1BBPxssYhfNUN2Xg9m-40" target="vW1BBPxssYhfNUN2Xg9m-42">
          <mxGeometry relative="1" as="geometry">
            <Array as="points">
              <mxPoint x="790" y="1481" />
            </Array>
          </mxGeometry>
        </mxCell>
        <mxCell id="vW1BBPxssYhfNUN2Xg9m-58" value="" style="curved=1;startArrow=none;endArrow=block;exitX=0.44;exitY=0;entryX=1;entryY=0.75;rounded=0;" edge="1" parent="1" source="vW1BBPxssYhfNUN2Xg9m-42" target="vW1BBPxssYhfNUN2Xg9m-34">
          <mxGeometry relative="1" as="geometry">
            <Array as="points">
              <mxPoint x="760" y="1481" />
              <mxPoint x="760" y="330" />
            </Array>
          </mxGeometry>
        </mxCell>
        <mxCell id="vW1BBPxssYhfNUN2Xg9m-59" value="Yes" style="curved=1;startArrow=none;endArrow=block;exitX=0.15;exitY=1;entryX=0.5;entryY=-0.01;rounded=0;" edge="1" parent="1" source="vW1BBPxssYhfNUN2Xg9m-39" target="vW1BBPxssYhfNUN2Xg9m-43">
          <mxGeometry relative="1" as="geometry">
            <Array as="points">
              <mxPoint x="323" y="1126" />
            </Array>
          </mxGeometry>
        </mxCell>
        <mxCell id="vW1BBPxssYhfNUN2Xg9m-60" value="" style="curved=1;startArrow=none;endArrow=block;exitX=0.63;exitY=0.98;entryX=0.5;entryY=0;rounded=0;" edge="1" parent="1" source="vW1BBPxssYhfNUN2Xg9m-43" target="vW1BBPxssYhfNUN2Xg9m-44">
          <mxGeometry relative="1" as="geometry">
            <Array as="points">
              <mxPoint x="501" y="1481" />
            </Array>
          </mxGeometry>
        </mxCell>
      </root>
    </mxGraphModel>
  </diagram>
</mxfile>
